<svg xmlns="http://www.w3.org/2000/svg" xmlns:xlink="http://www.w3.org/1999/xlink" width="200" zoomAndPan="magnify" viewBox="0 0 150 44.999999" height="60" preserveAspectRatio="xMidYMid meet" version="1.0"><defs><g/></defs><g fill="#000000" fill-opacity="1"><g transform="translate(22.943204, 39.033582)"><g><path d="M 6.328125 -4.34375 L 6.296875 -3.3125 C 6.296875 -3.144531 6.320312 -2.800781 6.375 -2.28125 C 6.632812 -1.96875 6.90625 -1.894531 7.1875 -2.0625 C 7.425781 -2.207031 7.945312 -2.609375 8.75 -3.265625 C 10.0625 -5.253906 11.148438 -7.207031 12.015625 -9.125 C 13.992188 -13.632812 15.398438 -17.484375 16.234375 -20.671875 C 16.492188 -21.617188 16.742188 -22.550781 16.984375 -23.46875 C 17.234375 -24.382812 17.476562 -25.320312 17.71875 -26.28125 C 17.96875 -27.25 18.25 -28.25 18.5625 -29.28125 L 18.5625 -29.453125 C 19.050781 -31.148438 20.300781 -32.472656 22.3125 -33.421875 C 24.238281 -34.367188 25.890625 -34.507812 27.265625 -33.84375 C 27.921875 -33.53125 28.390625 -32.992188 28.671875 -32.234375 C 28.960938 -31.472656 28.9375 -30.445312 28.59375 -29.15625 C 27.9375 -27.175781 27.273438 -25.09375 26.609375 -22.90625 C 25.953125 -20.726562 25.25 -18.539062 24.5 -16.34375 C 23.757812 -14.144531 22.925781 -12 22 -9.90625 C 21.082031 -7.8125 20.023438 -5.890625 18.828125 -4.140625 C 16.148438 -0.234375 12.988281 2.351562 9.34375 3.625 C 8.945312 3.789062 8.609375 3.890625 8.328125 3.921875 C 8.054688 3.953125 7.660156 4 7.140625 4.0625 C 6.628906 4.132812 5.976562 4.148438 5.1875 4.109375 C 4.40625 4.066406 3.640625 3.929688 2.890625 3.703125 C 1.171875 3.210938 0.109375 2.351562 -0.296875 1.125 C -0.753906 -0.601562 -0.929688 -1.859375 -0.828125 -2.640625 C -0.734375 -3.429688 -0.570312 -4.070312 -0.34375 -4.5625 C -0.113281 -5.050781 0.171875 -5.566406 0.515625 -6.109375 L 0.5625 -6.109375 C 0.820312 -6.597656 1.226562 -7.015625 1.78125 -7.359375 C 2.34375 -7.703125 2.929688 -7.925781 3.546875 -8.03125 C 4.171875 -8.132812 4.75 -8.082031 5.28125 -7.875 C 5.8125 -7.675781 6.160156 -7.289062 6.328125 -6.71875 C 6.359375 -6.40625 6.375 -6.003906 6.375 -5.515625 C 6.375 -5.023438 6.359375 -4.632812 6.328125 -4.34375 Z M 6.328125 -4.34375 "/></g></g><g transform="translate(47.097737, 39.033582)"><g><path d="M 8.734375 -28.5 C 10.546875 -30.570312 12.554688 -31.867188 14.765625 -32.390625 C 16.285156 -32.753906 17.722656 -32.691406 19.078125 -32.203125 C 20.140625 -33.328125 21.515625 -33.734375 23.203125 -33.421875 C 24.753906 -33.128906 26.078125 -32.253906 27.171875 -30.796875 C 27.234375 -30.585938 27.351562 -30.28125 27.53125 -29.875 C 27.71875 -29.476562 27.898438 -29.035156 28.078125 -28.546875 C 29.335938 -25.617188 29.4375 -21.773438 28.375 -17.015625 C 27.050781 -11.097656 24.710938 -6.085938 21.359375 -1.984375 C 20.328125 -0.722656 19.164062 0.320312 17.875 1.15625 C 15.800781 2.738281 13.332031 3.441406 10.46875 3.265625 C 8.6875 3.179688 7.191406 2.738281 5.984375 1.9375 C 1.191406 -0.445312 -0.367188 -5.414062 1.296875 -12.96875 C 2.671875 -19.164062 5.148438 -24.34375 8.734375 -28.5 Z M 9.265625 -5.640625 L 9.21875 -5.375 L 9.296875 -4.90625 C 9.472656 -4.019531 9.757812 -3.335938 10.15625 -2.859375 C 10.5625 -2.390625 10.894531 -2.097656 11.15625 -1.984375 C 11.4375 -2.210938 11.71875 -2.425781 12 -2.625 C 12.289062 -2.820312 12.554688 -3.066406 12.796875 -3.359375 C 14.742188 -5.765625 16.257812 -8.921875 17.34375 -12.828125 C 18.4375 -16.734375 18.84375 -20.351562 18.5625 -23.6875 C 17.4375 -22.25 16.253906 -20.597656 15.015625 -18.734375 C 13.785156 -16.867188 12.8125 -15.273438 12.09375 -13.953125 C 10.457031 -10.878906 9.515625 -8.109375 9.265625 -5.640625 Z M 9.265625 -5.640625 "/></g></g><g transform="translate(74.610653, 39.033582)"><g><path d="M 10.296875 -9.390625 L 8.21875 -4.140625 C 7.9375 -3.328125 7.679688 -2.488281 7.453125 -1.625 C 7.222656 -0.769531 6.976562 -0.0195312 6.71875 0.625 C 6.457031 1.269531 6.0625 1.78125 5.53125 2.15625 C 5 2.53125 4.398438 2.804688 3.734375 2.984375 C 3.078125 3.171875 2.394531 3.25 1.6875 3.21875 C 0.988281 3.195312 0.367188 3.070312 -0.171875 2.84375 C -1.410156 2.269531 -1.84375 1.320312 -1.46875 0 C -0.144531 -5.800781 1.09375 -10.453125 2.25 -13.953125 C 3.414062 -17.453125 4.378906 -20.207031 5.140625 -22.21875 C 5.898438 -24.226562 6.695312 -26.351562 7.53125 -28.59375 C 7.625 -29.425781 7.96875 -30.171875 8.5625 -30.828125 C 9.164062 -31.492188 9.875 -32.039062 10.6875 -32.46875 C 11.507812 -32.894531 12.363281 -33.203125 13.25 -33.390625 C 14.144531 -33.578125 14.9375 -33.597656 15.625 -33.453125 C 16.320312 -33.316406 16.832031 -33.003906 17.15625 -32.515625 C 17.488281 -32.023438 17.507812 -31.320312 17.21875 -30.40625 C 16.1875 -27.757812 15.457031 -25.890625 15.03125 -24.796875 C 14.601562 -23.710938 14.210938 -22.738281 13.859375 -21.875 L 12.65625 -19.03125 C 13.257812 -19 14.019531 -19.085938 14.9375 -19.296875 C 16.601562 -19.671875 17.8125 -19.796875 18.5625 -19.671875 C 18.5625 -19.816406 18.632812 -20.0625 18.78125 -20.40625 C 19.582031 -23.914062 20.484375 -27.132812 21.484375 -30.0625 C 22.203125 -32.46875 24.054688 -33.726562 27.046875 -33.84375 C 28.222656 -33.84375 29.113281 -33.554688 29.71875 -32.984375 C 30.375 -32.378906 30.457031 -31.5625 29.96875 -30.53125 C 27.332031 -23.125 25.46875 -17.28125 24.375 -13 C 23.132812 -8.0625 22.320312 -4.734375 21.9375 -3.015625 C 21.550781 -1.296875 21.210938 -0.28125 20.921875 0.03125 C 20.640625 0.351562 20.347656 0.578125 20.046875 0.703125 C 19.742188 0.835938 19.445312 0.960938 19.15625 1.078125 C 18.875 1.191406 18.644531 1.476562 18.46875 1.9375 L 18.34375 1.9375 C 18.113281 2.457031 17.609375 2.859375 16.828125 3.140625 C 16.054688 3.429688 15.273438 3.539062 14.484375 3.46875 C 13.703125 3.394531 13.046875 3.109375 12.515625 2.609375 C 11.984375 2.109375 11.84375 1.335938 12.09375 0.296875 C 12.382812 -1.335938 12.859375 -3.09375 13.515625 -4.96875 C 14.179688 -6.851562 14.707031 -8.328125 15.09375 -9.390625 C 15.476562 -10.453125 15.800781 -11.441406 16.0625 -12.359375 C 15.832031 -12.242188 15.609375 -12.15625 15.390625 -12.09375 C 15.179688 -12.039062 14.914062 -11.9375 14.59375 -11.78125 C 14.28125 -11.625 13.957031 -11.488281 13.625 -11.375 C 13.300781 -11.257812 12.976562 -11.144531 12.65625 -11.03125 C 11.851562 -10.707031 11.191406 -10.390625 10.671875 -10.078125 Z M 15.15625 -12.265625 C 15.1875 -12.265625 15.332031 -12.3125 15.59375 -12.40625 C 15.414062 -12.34375 15.269531 -12.296875 15.15625 -12.265625 Z M 15.15625 -12.265625 "/></g></g><g transform="translate(99.927703, 39.033582)"><g><path d="M 2.921875 -16.703125 C 3.503906 -18.628906 3.972656 -20.113281 4.328125 -21.15625 C 4.679688 -22.207031 5.03125 -23.148438 5.375 -23.984375 C 5.726562 -24.816406 6.125 -25.617188 6.5625 -26.390625 C 7.007812 -27.171875 7.5 -27.882812 8.03125 -28.53125 C 8.5625 -29.175781 9.128906 -29.6875 9.734375 -30.0625 C 10.335938 -30.4375 10.96875 -30.625 11.625 -30.625 C 12.289062 -30.625 12.976562 -30.363281 13.6875 -29.84375 C 14.84375 -26.96875 15.546875 -25.046875 15.796875 -24.078125 C 16.148438 -22.640625 16.46875 -20.613281 16.75 -18 C 17.007812 -18.65625 17.300781 -19.347656 17.625 -20.078125 C 17.957031 -20.816406 18.285156 -21.5625 18.609375 -22.3125 C 19.492188 -24.207031 20.050781 -25.640625 20.28125 -26.609375 C 20.914062 -28.617188 22.222656 -30.128906 24.203125 -31.140625 C 25.921875 -31.992188 27.53125 -32.265625 29.03125 -31.953125 C 29.625 -31.835938 30.039062 -31.59375 30.28125 -31.21875 C 30.53125 -30.84375 30.53125 -30.453125 30.28125 -30.046875 C 30.039062 -29.648438 29.957031 -29.269531 30.03125 -28.90625 C 30.101562 -28.550781 30.171875 -28.128906 30.234375 -27.640625 C 30.316406 -26.328125 30.082031 -25.160156 29.53125 -24.140625 C 28.988281 -23.117188 28.429688 -21.851562 27.859375 -20.34375 C 27.285156 -18.84375 26.703125 -17.242188 26.109375 -15.546875 C 25.523438 -13.847656 24.929688 -12.125 24.328125 -10.375 C 23.722656 -8.625 23.132812 -7.03125 22.5625 -5.59375 C 21.300781 -2.289062 20.269531 -0.46875 19.46875 -0.125 C 18.375 0.53125 17.566406 0.914062 17.046875 1.03125 C 16.390625 1.144531 15.457031 1.144531 14.25 1.03125 C 13.507812 0.976562 12.863281 0.015625 12.3125 -1.859375 C 12 -2.859375 11.710938 -4.25 11.453125 -6.03125 C 10.992188 -9.125 10.675781 -10.832031 10.5 -11.15625 C 9.351562 -7.425781 8.539062 -5.070312 8.0625 -4.09375 C 7.59375 -3.113281 7.234375 -2.460938 6.984375 -2.140625 C 6.742188 -1.828125 6.453125 -1.414062 6.109375 -0.90625 C 5.742188 0.125 4.851562 0.882812 3.4375 1.375 C 2.238281 1.832031 1.148438 1.90625 0.171875 1.59375 C -0.890625 1.25 -1.207031 0.585938 -0.78125 -0.390625 C -0.457031 -3.835938 0.773438 -9.273438 2.921875 -16.703125 Z M 2.921875 -16.703125 "/></g></g></g></svg>